<svg width="25" height="25" viewBox="0 0 25 25" fill="none" xmlns="http://www.w3.org/2000/svg">
<g clip-path="url(#clip0_14_1295)">
<path d="M4.81132 16.6678C5.06271 16.8174 5.27856 17.0121 5.45081 17.2371H8.70598V14.0806L7.16247 13.1236C6.8187 12.9105 6.7128 12.459 6.92592 12.1153C7.13908 11.7716 7.59036 11.6657 7.93427 11.8787L9.43833 12.8112L10.7493 11.9984C8.13445 8.41283 8.73498 3.33221 12.2157 0.464604C6.48221 -1.45611 0.467784 2.8135 0.440638 8.94559C0.426479 12.1976 2.15781 15.0882 4.81132 16.6678Z" fill="#232323"/>
<path d="M5.90881 18.7018H12.8418V20.3618H5.90881V18.7018Z" fill="#232323"/>
<path d="M10.1707 14.0806V17.2371H13.2899C13.4556 17.0185 13.6622 16.8312 13.9027 16.6896C14.5683 16.2979 15.1794 15.82 15.721 15.273C14.1911 14.9285 12.8172 14.1677 11.7247 13.1164C11.6831 13.1434 11.3828 13.3291 10.1707 14.0806Z" fill="#232323"/>
<path d="M17.5777 0.00234985C13.7374 0.00234985 10.5959 3.17573 10.5959 7.03294C10.5959 10.6611 13.3811 13.6655 16.9522 13.9861C21.085 14.3553 24.5595 11.0793 24.5595 7.03294C24.5595 3.1832 21.4275 0.00234985 17.5777 0.00234985ZM18.311 10.2072V10.3603C18.311 10.7648 17.9831 11.0927 17.5787 11.0927C17.1742 11.0927 16.8463 10.7648 16.8463 10.3603V10.2901C16.5089 10.2309 16.2006 10.1046 15.8112 9.84981C15.4727 9.6284 15.3778 9.17453 15.5992 8.83604C15.8207 8.4975 16.2746 8.40268 16.613 8.62405C16.97 8.85762 17.0857 8.87583 17.5737 8.87246C18.0449 8.86934 18.2326 8.4995 18.2693 8.2815C18.3022 8.08577 18.2652 7.82554 17.9022 7.69728C17.2942 7.48231 16.6707 7.23565 16.229 6.8892C15.2232 6.10031 15.5268 4.29848 16.8464 3.81898V3.71294C16.8464 3.30848 17.1743 2.98058 17.5787 2.98058C17.9832 2.98058 18.3111 3.30848 18.3111 3.71294V3.75356C18.6719 3.8554 18.9625 4.03962 19.1622 4.24262C19.4458 4.53098 19.4419 4.99465 19.1535 5.27827C18.8653 5.56174 18.402 5.55798 18.1184 5.27011C18.0775 5.23023 17.8519 5.04211 17.3635 5.18921C17.1685 5.24795 17.1161 5.45018 17.1047 5.51077C17.0808 5.63722 17.1148 5.72247 17.1329 5.73672C17.4092 5.9534 17.9236 6.15128 18.3904 6.3163C20.3206 6.99856 20.0855 9.56575 18.311 10.2072Z" fill="#232323"/>
<path d="M7.08057 22.7053C7.08057 23.9706 8.10996 25 9.37527 25C10.6406 25 11.67 23.9706 11.67 22.7053V21.8265H7.08057V22.7053Z" fill="#232323"/>
</g>
<defs>
<clipPath id="clip0_14_1295">
<rect width="25" height="25" fill="white"/>
</clipPath>
</defs>
</svg>
